<svg version="1.1" viewBox="0.0 0.0 695.0 540.0" fill="none" stroke="none" stroke-linecap="square"
  stroke-miterlimit="10" xmlns:xlink="http://www.w3.org/1999/xlink" xmlns="http://www.w3.org/2000/svg">
  <clipPath id="p.anubis-securities">
    <path d="m0 0l695.0 0l0 540.0l-695.0 0l0 -540.0z" clip-rule="nonzero" />
  </clipPath>
  <g clip-path="url(#p.anubis-securities)">
    <path fill="#000000" fill-opacity="0.0" d="m0 0l695.0 0l0 540.0l-695.0 0z" fill-rule="evenodd" />
    <path fill="#ff5400"
      d="m72.144356 275.17322l0 0c0 -143.88974 117.28025 -260.53543 261.95276 -260.53543l0 0c69.47418 0 136.1029 27.449192 185.22858 76.30906c49.12567 48.85988 76.72418 115.12808 76.72418 184.22636l0 0c0 143.88977 -117.28024 260.53546 -261.95276 260.53546l0 0c-144.6725 0 -261.95276 -116.64569 -261.95276 -260.53546z"
      fill-rule="evenodd" />
    <path stroke="#b82729" stroke-width="8.0" stroke-linejoin="round" stroke-linecap="butt"
      d="m72.144356 275.17322l0 0c0 -143.88974 117.28025 -260.53543 261.95276 -260.53543l0 0c69.47418 0 136.1029 27.449192 185.22858 76.30906c49.12567 48.85988 76.72418 115.12808 76.72418 184.22636l0 0c0 143.88977 -117.28024 260.53546 -261.95276 260.53546l0 0c-144.6725 0 -261.95276 -116.64569 -261.95276 -260.53546z"
      fill-rule="evenodd" />
    <path fill="#ffd800"
      d="m152.46452 453.55118l0.29397583 12.509186l358.87408 0l28.792908 -29.097107l30.326843 -54.763794l15.409302 -43.963257l-219.41544 -253.6929l-217.216 251.53018z"
      fill-rule="evenodd" />
    <path fill="#000000" fill-opacity="0.0"
      d="m72.144356 275.63196l0 0c0 -143.88976 117.28025 -260.53546 261.95276 -260.53546l0 0c69.47418 0 136.1029 27.449188 185.22858 76.30906c49.12567 48.85987 76.72418 115.128075 76.72418 184.22638l0 0c0 143.88974 -117.28024 260.5354 -261.95276 260.5354l0 0c-144.6725 0 -261.95276 -116.64566 -261.95276 -260.5354z"
      fill-rule="evenodd" />
    <path stroke="#b82729" stroke-width="8.0" stroke-linejoin="round" stroke-linecap="butt"
      d="m72.144356 275.63196l0 0c0 -143.88976 117.28025 -260.53546 261.95276 -260.53546l0 0c69.47418 0 136.1029 27.449188 185.22858 76.30906c49.12567 48.85987 76.72418 115.128075 76.72418 184.22638l0 0c0 143.88974 -117.28024 260.5354 -261.95276 260.5354l0 0c-144.6725 0 -261.95276 -116.64566 -261.95276 -260.5354z"
      fill-rule="evenodd" />
    <path fill="#3e3e3e"
      d="m116.42148 226.16447l0 0c3.7309952 91.577835 -13.118149 151.82521 -38.770866 138.63274c-25.652718 -13.192474 -51.560608 -95.42859 -59.615578 -189.23013c-8.054967 -93.80155 4.4271927 -167.91048 28.722183 -170.529z"
      fill-rule="evenodd" />
    <path fill="#3e3e3e"
      d="m44.98163 5.39895l11.34383 -4.3805776l115.674545 270.8084l47.56955 -9.729675l155.67453 24.86615l30.811035 54.595795l283.7848 41.078735l4.8635254 10.270355l-20.54071 56.758514l-531.2441 1.115509l-60.65355 -84.35959z"
      fill-rule="evenodd" />
    <path fill="#ffd800"
      d="m240.45145 313.05774l103.22571 8.603668l-1.2283325 19.661438l-105.83728 -7.834656z"
      fill-rule="evenodd" />
  </g>
</svg>
